name rise32.9588peak41.5061fall63.4684.mot
datacolumns 19
datarows 30
range 23.14659200000000 23.19491100000000
endheader
time	ground_force1_vx	ground_force1_vy	ground_force1_vz	ground_force1_px	ground_force1_py	ground_force1_pz	ground_force2_vx	ground_force2_vy	ground_force2_vz	ground_force2_px	ground_force2_py	ground_force2_pz	ground_torque1_x	ground_torque1_y	ground_torque1_z	ground_torque2_x	ground_torque2_y	ground_torque2_z	
23.14659200000000	3.50618300000000	717.26005499999997	43.81617100000000	0.17697500000000	0.00000000000000	0.11646300000000	0.00000000000000	0.00000000000000	0.00000000000000	0.00000000000000	0.00000000000000	0.00000000000000	0.00000000000000	14.77803700000000	0.00000000000000	0.00000000000000	0.00000000000000	0.00000000000000	
23.14825100000000	3.08853700000000	717.80390499999999	43.82760200000000	0.17610300000000	0.00000000000000	0.11641100000000	0.00000000000000	0.00000000000000	0.00000000000000	0.00000000000000	0.00000000000000	0.00000000000000	0.00000000000000	14.82033000000000	0.00000000000000	0.00000000000000	0.00000000000000	0.00000000000000	
23.14991300000000	2.66307400000000	718.37616300000002	43.84482100000000	0.17521500000000	0.00000000000000	0.11636100000000	0.00000000000000	0.00000000000000	0.00000000000000	0.00000000000000	0.00000000000000	0.00000000000000	0.00000000000000	14.86559800000000	0.00000000000000	0.00000000000000	0.00000000000000	0.00000000000000	
23.15159800000000	2.22980700000000	718.97614899999996	43.86764900000000	0.17431100000000	0.00000000000000	0.11631300000000	0.00000000000000	0.00000000000000	0.00000000000000	0.00000000000000	0.00000000000000	0.00000000000000	0.00000000000000	14.91374900000000	0.00000000000000	0.00000000000000	0.00000000000000	0.00000000000000	
23.15325600000000	1.78877900000000	719.60322499999995	43.89590900000000	0.17339200000000	0.00000000000000	0.11626600000000	0.00000000000000	0.00000000000000	0.00000000000000	0.00000000000000	0.00000000000000	0.00000000000000	0.00000000000000	14.96469400000000	0.00000000000000	0.00000000000000	0.00000000000000	0.00000000000000	
23.15492500000000	1.34006200000000	720.25679400000001	43.92942200000000	0.17245900000000	0.00000000000000	0.11622200000000	0.00000000000000	0.00000000000000	0.00000000000000	0.00000000000000	0.00000000000000	0.00000000000000	0.00000000000000	15.01834300000000	0.00000000000000	0.00000000000000	0.00000000000000	0.00000000000000	
23.15658400000000	0.88376000000000	720.93630499999995	43.96801500000000	0.17151300000000	0.00000000000000	0.11617900000000	0.00000000000000	0.00000000000000	0.00000000000000	0.00000000000000	0.00000000000000	0.00000000000000	0.00000000000000	15.07460300000000	0.00000000000000	0.00000000000000	0.00000000000000	0.00000000000000	
23.15824800000000	0.42000400000000	721.64125200000001	44.01151200000000	0.17055400000000	0.00000000000000	0.11613700000000	0.00000000000000	0.00000000000000	0.00000000000000	0.00000000000000	0.00000000000000	0.00000000000000	0.00000000000000	15.13338400000000	0.00000000000000	0.00000000000000	0.00000000000000	0.00000000000000	
23.15991400000000	-0.05104400000000	722.37118099999998	44.05974200000000	0.16958300000000	0.00000000000000	0.11609700000000	0.00000000000000	0.00000000000000	0.00000000000000	0.00000000000000	0.00000000000000	0.00000000000000	0.00000000000000	15.19459200000000	0.00000000000000	0.00000000000000	0.00000000000000	0.00000000000000	
23.16159000000000	-0.52919500000000	723.12568199999998	44.11253600000000	0.16860100000000	0.00000000000000	0.11605800000000	0.00000000000000	0.00000000000000	0.00000000000000	0.00000000000000	0.00000000000000	0.00000000000000	0.00000000000000	15.25813700000000	0.00000000000000	0.00000000000000	0.00000000000000	0.00000000000000	
23.16324300000000	-1.01423300000000	723.90439900000001	44.16972900000000	0.16761000000000	0.00000000000000	0.11602100000000	0.00000000000000	0.00000000000000	0.00000000000000	0.00000000000000	0.00000000000000	0.00000000000000	0.00000000000000	15.32392300000000	0.00000000000000	0.00000000000000	0.00000000000000	0.00000000000000	
23.16490800000000	-1.50591600000000	724.70702200000005	44.23115900000000	0.16661100000000	0.00000000000000	0.11598400000000	0.00000000000000	0.00000000000000	0.00000000000000	0.00000000000000	0.00000000000000	0.00000000000000	0.00000000000000	15.39185700000000	0.00000000000000	0.00000000000000	0.00000000000000	0.00000000000000	
23.16658500000000	-2.00397600000000	725.53329299999996	44.29666800000000	0.16560400000000	0.00000000000000	0.11594900000000	0.00000000000000	0.00000000000000	0.00000000000000	0.00000000000000	0.00000000000000	0.00000000000000	0.00000000000000	15.46184500000000	0.00000000000000	0.00000000000000	0.00000000000000	0.00000000000000	
23.16825000000000	-2.50812100000000	726.38300000000004	44.36610500000000	0.16459200000000	0.00000000000000	0.11591500000000	0.00000000000000	0.00000000000000	0.00000000000000	0.00000000000000	0.00000000000000	0.00000000000000	0.00000000000000	15.53378900000000	0.00000000000000	0.00000000000000	0.00000000000000	0.00000000000000	
23.16991100000000	-3.01803800000000	727.25598100000002	44.43932200000000	0.16357400000000	0.00000000000000	0.11588100000000	0.00000000000000	0.00000000000000	0.00000000000000	0.00000000000000	0.00000000000000	0.00000000000000	0.00000000000000	15.60759500000000	0.00000000000000	0.00000000000000	0.00000000000000	0.00000000000000	
23.17159900000000	-3.53339300000000	728.15211399999998	44.51617600000000	0.16255300000000	0.00000000000000	0.11584800000000	0.00000000000000	0.00000000000000	0.00000000000000	0.00000000000000	0.00000000000000	0.00000000000000	0.00000000000000	15.68316400000000	0.00000000000000	0.00000000000000	0.00000000000000	0.00000000000000	
23.17325000000000	-4.05382900000000	729.07132300000001	44.59653200000000	0.16153000000000	0.00000000000000	0.11581600000000	0.00000000000000	0.00000000000000	0.00000000000000	0.00000000000000	0.00000000000000	0.00000000000000	0.00000000000000	15.76039700000000	0.00000000000000	0.00000000000000	0.00000000000000	0.00000000000000	
23.17491100000000	-4.57897400000000	730.01356999999996	44.68025900000000	0.16050600000000	0.00000000000000	0.11578400000000	0.00000000000000	0.00000000000000	0.00000000000000	0.00000000000000	0.00000000000000	0.00000000000000	0.00000000000000	15.83919500000000	0.00000000000000	0.00000000000000	0.00000000000000	0.00000000000000	
23.17658900000000	-5.10843800000000	730.97885499999995	44.76723500000000	0.15948200000000	0.00000000000000	0.11575300000000	0.00000000000000	0.00000000000000	0.00000000000000	0.00000000000000	0.00000000000000	0.00000000000000	0.00000000000000	15.91945700000000	0.00000000000000	0.00000000000000	0.00000000000000	0.00000000000000	
23.17825000000000	-5.64181800000000	731.96720900000003	44.85734200000000	0.15846000000000	0.00000000000000	0.11572200000000	0.00000000000000	0.00000000000000	0.00000000000000	0.00000000000000	0.00000000000000	0.00000000000000	0.00000000000000	16.00108000000000	0.00000000000000	0.00000000000000	0.00000000000000	0.00000000000000	
23.17991000000000	-6.17869500000000	732.97869100000003	44.95047100000000	0.15744000000000	0.00000000000000	0.11569200000000	0.00000000000000	0.00000000000000	0.00000000000000	0.00000000000000	0.00000000000000	0.00000000000000	0.00000000000000	16.08396100000000	0.00000000000000	0.00000000000000	0.00000000000000	0.00000000000000	
23.18159300000000	-6.71864100000000	734.01338399999997	45.04652000000000	0.15642400000000	0.00000000000000	0.11566100000000	0.00000000000000	0.00000000000000	0.00000000000000	0.00000000000000	0.00000000000000	0.00000000000000	0.00000000000000	16.16799600000000	0.00000000000000	0.00000000000000	0.00000000000000	0.00000000000000	
23.18324300000000	-7.26121500000000	735.07139099999995	45.14539300000000	0.15541300000000	0.00000000000000	0.11563100000000	0.00000000000000	0.00000000000000	0.00000000000000	0.00000000000000	0.00000000000000	0.00000000000000	0.00000000000000	16.25307700000000	0.00000000000000	0.00000000000000	0.00000000000000	0.00000000000000	
23.18491700000000	-7.80597200000000	736.15282500000001	45.24700200000000	0.15440700000000	0.00000000000000	0.11560100000000	0.00000000000000	0.00000000000000	0.00000000000000	0.00000000000000	0.00000000000000	0.00000000000000	0.00000000000000	16.33909700000000	0.00000000000000	0.00000000000000	0.00000000000000	0.00000000000000	
23.18658500000000	-8.35245600000000	737.25781199999994	45.35126700000000	0.15340900000000	0.00000000000000	0.11557100000000	0.00000000000000	0.00000000000000	0.00000000000000	0.00000000000000	0.00000000000000	0.00000000000000	0.00000000000000	16.42594700000000	0.00000000000000	0.00000000000000	0.00000000000000	0.00000000000000	
23.18824600000000	-8.90021000000000	738.38647500000002	45.45811600000000	0.15241800000000	0.00000000000000	0.11554000000000	0.00000000000000	0.00000000000000	0.00000000000000	0.00000000000000	0.00000000000000	0.00000000000000	0.00000000000000	16.51351600000000	0.00000000000000	0.00000000000000	0.00000000000000	0.00000000000000	
23.18991500000000	-9.44877200000000	739.53893600000004	45.56748100000000	0.15143500000000	0.00000000000000	0.11551000000000	0.00000000000000	0.00000000000000	0.00000000000000	0.00000000000000	0.00000000000000	0.00000000000000	0.00000000000000	16.60169200000000	0.00000000000000	0.00000000000000	0.00000000000000	0.00000000000000	
23.19157500000000	-9.99767800000000	740.71530399999995	45.67930600000000	0.15046200000000	0.00000000000000	0.11547900000000	0.00000000000000	0.00000000000000	0.00000000000000	0.00000000000000	0.00000000000000	0.00000000000000	0.00000000000000	16.69036200000000	0.00000000000000	0.00000000000000	0.00000000000000	0.00000000000000	
23.19324900000000	-10.54646500000000	741.91567199999997	45.79353900000000	0.14949900000000	0.00000000000000	0.11544900000000	0.00000000000000	0.00000000000000	0.00000000000000	0.00000000000000	0.00000000000000	0.00000000000000	0.00000000000000	16.77940800000000	0.00000000000000	0.00000000000000	0.00000000000000	0.00000000000000	
23.19491100000000	-11.09467200000000	743.14011100000005	45.91013600000000	0.14854600000000	0.00000000000000	0.11541800000000	0.00000000000000	0.00000000000000	0.00000000000000	0.00000000000000	0.00000000000000	0.00000000000000	0.00000000000000	16.86871600000000	0.00000000000000	0.00000000000000	0.00000000000000	0.00000000000000	
